<svg xmlns="http://www.w3.org/2000/svg" width="18" height="21" viewBox="0 0 18 21" fill="none">
<path d="M15.1503 11.254C15.1265 8.68757 17.3156 7.43896 17.4157 7.38083C16.1759 5.62658 14.2543 5.38689 13.579 5.36778C11.965 5.20295 10.3995 6.30503 9.57735 6.30503C8.73878 6.30503 7.47273 5.38371 6.10822 5.41078C4.35232 5.43706 2.70965 6.42368 1.80873 7.95576C-0.0505505 11.0797 1.33612 15.6703 3.11745 18.1954C4.00853 19.4321 5.04976 20.8129 6.41263 20.7643C7.74596 20.7109 8.24401 19.9393 9.85304 19.9393C11.4473 19.9393 11.915 20.7643 13.3049 20.7332C14.7359 20.7109 15.6368 19.491 16.4967 18.2432C17.5265 16.8258 17.94 15.4299 17.9564 15.3582C17.9228 15.347 15.1773 14.3302 15.1503 11.254Z" fill="#313131"/>
<path d="M12.5246 3.7067C13.2418 2.83634 13.7324 1.65223 13.5962 0.450614C12.5583 0.495207 11.2602 1.14738 10.5127 1.99863C9.8514 2.74874 9.26063 3.97823 9.41324 5.13447C10.5792 5.21887 11.7763 4.56352 12.5246 3.7067Z" fill="#313131"/>
</svg>